# xmcd CD database file
# Copyright (C) 1997 Ti Kan
# 
# Track frame offsets:
#     180
#     15315
#     31869
#     49073
#     65016
#     92060
#     123691
#     139506
#     162020
#     175150
#     197722
#     221221
#     248245
# 
# Disc length: 3518 seconds
# 
# Revision: 1
# Processed by: cddbd v1.4b41PL1 Copyright (c) Steve Scherf et al.
# Submitted via: DiscPlay 4.0.4
# 
DISCID=b20dbc0d
DTITLE=Gent Band - Alle 13 Goed
DYEAR=1900
DGENRE=
TTITLE0=Sweet Soul Music
TTITLE1=Lady Marmelade
TTITLE2=The Show
TTITLE3=I'm Walking On Sunshine
TTITLE4=Medley
TTITLE5=It's Raining Men
TTITLE6=Donna
TTITLE7=I've Got The Music In Me
TTITLE8=Crazy Horses
TTITLE9=Proud Mary
TTITLE10=Medley
TTITLE11=Feeling Hot! Hot! Hot!
TTITLE12=Nog Even Dit, Met Trio Tubantia
EXTD=
EXTT0=
EXTT1=
EXTT2=
EXTT3=
EXTT4=De Bloemenpolka, Wooly Bully, Rawhide\n
EXTT5=
EXTT6=
EXTT7=
EXTT8=
EXTT9=
EXTT10=Flipper - Hup, Daar is Willem - Daar komt \nSwiebertje - Mijn Opa - Peppi
EXTT10=e en Kokkie\n
EXTT11=
EXTT12=
PLAYORDER=
